<svg xmlns="http://www.w3.org/2000/svg" viewBox="0 0 48 48">
    <path fill="#2E7D32" d="M42,13.976H31.977V6H13.977C11.977,6,10,7.977,10,9.977v28.047C10,40.023,11.977,42,13.977,42h28.047 C44.023,42,46,40.023,46,38.023V13.976z"/>
    <path fill="#C8E6C9" d="M31.977,13.976L42,13.976L31.977,6Z"/>
    <path fill="#FFFFFF" d="M35.5,31h-2l-2.5-4.5L28.5,31h-2l3.5-5.5L26.5,20h2l2.5,4.5l2.5-4.5h2l-3.5,5.5L35.5,31z M24,30 h-6v-1l2.5-2.5c0.5-0.5,0.8-0.8,0.9-1s0.2-0.5,0.2-0.7c0-0.3-0.1-0.5-0.3-0.7s-0.4-0.2-0.7-0.2c-0.3,0-0.6,0.1-0.8,0.3 s-0.4,0.5-0.4,0.8l-1.5-0.1c0.1-0.7,0.3-1.2,0.8-1.6s1.1-0.6,1.9-0.6c0.8,0,1.4,0.2,1.9,0.6s0.7,0.9,0.7,1.5c0,0.3-0.1,0.7-0.2,1 s-0.4,0.7-0.8,1.1L20,29h4V30z"/>
</svg> 