<svg xmlns="http://www.w3.org/2000/svg" viewBox="0 0 48 48">
    <path fill="#43A047" d="M37,45H11c-1.657,0-3-1.343-3-3V6c0-1.657,1.343-3,3-3h19l10,10v29C40,43.657,38.657,45,37,45z"/>
    <path fill="#C8E6C9" d="M40,13H30V3L40,13z"/>
    <path fill="#2E7D32" d="M30,13h10v29c0,1.657-1.343,3-3,3H11c-1.657,0-3-1.343-3-3V6c0-1.657,1.343-3,3-3h19V13z"/>
    <path fill="#E8F5E9" d="M31,23H17v14h14V23z M19,35h-2v-2h2V35z M19,31h-2v-2h2V31z M19,27h-2v-2h2V27z M23,35h-2v-2h2V35z M23,31h-2v-2h2V31z M23,27h-2v-2h2V27z M27,35h-2v-2h2V35z M27,31h-2v-2h2V31z M27,27h-2v-2h2V27z M31,35h-2v-2h2V35z M31,31h-2v-2h2V31z M31,27h-2v-2h2V27z"/>
</svg> 