<svg xmlns="http://www.w3.org/2000/svg" viewBox="0 0 48 48">
    <path fill="#1589EE" d="M42,37c0,2.8-2.2,5-5,5H11c-2.8,0-5-2.2-5-5V11c0-2.8,2.2-5,5-5h26c2.8,0,5,2.2,5,5V37z"/>
    <path fill="#FFFFFF" d="M25.5,19.5c-1.4,0-2.5,1.1-2.5,2.5s1.1,2.5,2.5,2.5s2.5-1.1,2.5-2.5S26.9,19.5,25.5,19.5z M25.5,23 c-0.6,0-1-0.4-1-1s0.4-1,1-1s1,0.4,1,1S26.1,23,25.5,23z M31.5,19.5c-1.4,0-2.5,1.1-2.5,2.5s1.1,2.5,2.5,2.5s2.5-1.1,2.5-2.5 S32.9,19.5,31.5,19.5z M31.5,23c-0.6,0-1-0.4-1-1s0.4-1,1-1s1,0.4,1,1S32.1,23,31.5,23z M19.5,19.5c-1.4,0-2.5,1.1-2.5,2.5 s1.1,2.5,2.5,2.5s2.5-1.1,2.5-2.5S20.9,19.5,19.5,19.5z M19.5,23c-0.6,0-1-0.4-1-1s0.4-1,1-1s1,0.4,1,1S20.1,23,19.5,23z M13.5,19.5c-1.4,0-2.5,1.1-2.5,2.5s1.1,2.5,2.5,2.5s2.5-1.1,2.5-2.5S14.9,19.5,13.5,19.5z M13.5,23c-0.6,0-1-0.4-1-1s0.4-1,1-1 s1,0.4,1,1S14.1,23,13.5,23z"/>
</svg> 